<svg id="decoration" xmlns="http://www.w3.org/2000/svg" xmlns:xlink="http://www.w3.org/1999/xlink" width="46.354" height="8.354" viewBox="0 0 46.354 8.354">
  <defs>
    <pattern id="pattern" preserveAspectRatio="none" width="100%" height="100%" viewBox="0 0 0 0">
      <image/>
    </pattern>
  </defs>
  <rect id="Layer_2" data-name="Layer 2" fill="url(#pattern)"/>
  <g id="Shape_1" data-name="Shape 1" fill="none">
    <path d="M13,8l-.379.325L6.972,1.736,1.354,7.354.646,6.647l6-6L7,1,7.38.675l5.648,6.59L19.646.646l.707.707-7,7Z" stroke="none"/>
    <path d="M 13.35327911376953 8.353857040405273 L 12.99985027313232 7.999856948852539 L 12.62070751190186 8.324999809265137 L 6.971850395202637 1.735714316368103 L 1.353564500808716 7.353857040405273 L 0.6461359858512878 6.646571636199951 L 6.646564483642578 0.646142840385437 L 7.000421524047852 1.000142812728882 L 7.379992961883545 0.675000011920929 L 13.02842140197754 7.264714241027832 L 19.6461353302002 0.646142840385437 L 20.35356521606445 1.35357141494751 L 13.35327911376953 8.353857040405273 Z" stroke="none" fill="#f2ab7f"/>
  </g>
  <g id="Shape_1_copy" data-name="Shape 1 copy" fill="none">
    <path d="M26,8l-.38.325L19.971,1.736,14.353,7.354l-.707-.707,6-6L20,1l.38-.325,5.649,6.589L32.647.646l.707.707-7,7Z" stroke="none"/>
    <path d="M 26.35377883911133 8.353857040405273 L 25.99992179870605 7.999856948852539 L 25.62035179138184 8.324999809265137 L 19.97149467468262 1.735714316368103 L 14.35320854187012 7.353857040405273 L 13.64663696289063 6.646571636199951 L 19.64606475830078 0.646142840385437 L 20.00006484985352 1.000142812728882 L 20.37963676452637 0.675000011920929 L 26.02849388122559 7.264285564422607 L 32.64663696289063 0.646142840385437 L 33.35406494140625 1.35357141494751 L 26.35377883911133 8.353857040405273 Z" stroke="none" fill="#f2ab7f"/>
  </g>
  <g id="Shape_1_copy_2" data-name="Shape 1 copy 2" fill="none">
    <path d="M39,8l-.379.325L32.972,1.736,27.354,7.354l-.707-.707,6-6L33,1l.379-.325,5.649,6.589L45.646.646l.707.707-7,7Z" stroke="none"/>
    <path d="M 39.35337829589844 8.353857040405273 L 38.99966430664063 8 L 38.62080764770508 8.324999809265137 L 32.97195053100586 1.735714316368103 L 27.35366439819336 7.353857040405273 L 26.64623641967773 6.646571636199951 L 32.64666366577148 0.646142840385437 L 33.0003776550293 1 L 33.37923431396484 0.675000011920929 L 39.02809143066406 7.264285564422607 L 45.64623641967773 0.646142840385437 L 46.35366439819336 1.35357141494751 L 39.35337829589844 8.353857040405273 Z" stroke="none" fill="#f2ab7f"/>
  </g>
</svg>
